<svg height="512" viewBox="0 0 64 64" width="512" xmlns="http://www.w3.org/2000/svg"><g id="y"><g><path d="m43 56h-40v-54h32l8 8v16z" fill="#c2cfe8"/><path d="m10.13 2c-2.281 0-4.13 1.849-4.13 4.13v27.457c0 10.169 8.244 18.413 18.413 18.413h13.13c3.014 0 5.457-2.443 5.457-5.457v-36.543l-8-8z" fill="#eef1fa"/><path d="m43 10h-8v-8z" fill="#fbfbfb"/><path d="m34 18h4v13h-4z" fill="#27d674"/><path d="m26 22h4v9h-4z" fill="#e63a45"/><path d="m18 25h4v6h-4z" fill="#e63a45"/><path d="m10 21h4v10h-4z" fill="#27d674"/><path d="m19 21c-.231 0-.463-.08-.65-.241l-6.297-5.397-5.346 5.345-1.414-1.414 6-6c.369-.37.961-.393 1.357-.052l6.297 5.397 3.346-3.345c.391-.391 1.023-.391 1.414 0l2.293 2.293 6.293-6.293 1.414 1.414-7 7c-.391.391-1.023.391-1.414 0l-2.293-2.293-3.293 3.293c-.194.194-.45.293-.707.293z" fill="#27d674"/><g fill="#355485"><path d="m6 5h9v2h-9z"/><path d="m6 8h9v2h-9z"/></g><path d="m37 41v4c0 2.209-4.029 4-9 4s-9-1.791-9-4v-4z" fill="#f1a141"/><ellipse cx="28" cy="41" fill="#ffbe51" rx="9" ry="4"/><g fill="#355485"><path d="m6 38h9v2h-9z"/><path d="m6 41h9v2h-9z"/><path d="m6 44h3v2h-3z"/><path d="m6 47h3v2h-3z"/></g><g fill="#27d674"><path d="m60 15h-2v-2h-2v2h-2v2h2v2h2v-2h2z"/><path d="m50 4h-2v2h-2v2h2v2h2v-2h2v-2h-2z"/></g><path d="m37 45v-4h-9v8c4.971 0 9-1.791 9-4z" fill="#1cb15f"/><g><path d="m43 47c-1.105 0-2-.895-2-2v-1c0-1.105.895-2 2-2h16c1.105 0 2 .895 2 2v1c0 1.105-.895 2-2 2z" fill="#f1a141"/><path d="m43 42c-.931 0-1.706.639-1.929 1.5.223.861.998 1.5 1.929 1.5h16c.931 0 1.706-.639 1.929-1.5-.223-.861-.998-1.5-1.929-1.5z" fill="#ffbe51"/><path d="m43 52c-1.105 0-2-.895-2-2v-1c0-1.105.895-2 2-2h16c1.105 0 2 .895 2 2v1c0 1.105-.895 2-2 2z" fill="#f1a141"/><path d="m43 47c-.931 0-1.706.639-1.929 1.5.223.861.998 1.5 1.929 1.5h16c.931 0 1.706-.639 1.929-1.5-.223-.861-.998-1.5-1.929-1.5z" fill="#ffbe51"/><path d="m43 57c-1.105 0-2-.895-2-2v-1c0-1.105.895-2 2-2h16c1.105 0 2 .895 2 2v1c0 1.105-.895 2-2 2z" fill="#f1a141"/><path d="m43 52c-.931 0-1.706.639-1.929 1.5.223.861.998 1.5 1.929 1.5h16c.931 0 1.706-.639 1.929-1.5-.223-.861-.998-1.5-1.929-1.5z" fill="#ffbe51"/><path d="m43 62c-1.105 0-2-.895-2-2v-1c0-1.105.895-2 2-2h16c1.105 0 2 .895 2 2v1c0 1.105-.895 2-2 2z" fill="#f1a141"/><path d="m43 57c-.931 0-1.706.639-1.929 1.5.223.861.998 1.5 1.929 1.5h16c.931 0 1.706-.639 1.929-1.5-.223-.861-.998-1.5-1.929-1.5z" fill="#ffbe51"/></g><g><circle cx="51" cy="32" fill="#ffbe51" r="10"/><path d="m60 33c-.553 0-1-.448-1-1 0-4.411-3.589-8-8-8s-8 3.589-8 8c0 .552-.447 1-1 1s-1-.448-1-1c0-5.514 4.486-10 10-10s10 4.486 10 10c0 .552-.447 1-1 1z" fill="#ffcb74"/><circle cx="51" cy="32" fill="#f1a141" r="8"/><path d="m45 32c0-4.072 3.06-7.436 7-7.931-.328-.041-.661-.069-1-.069-4.411 0-8 3.589-8 8s3.589 8 8 8c.339 0 .672-.028 1-.069-3.94-.495-7-3.859-7-7.931z" fill="#dd933c"/><path d="m55 34.5c0-1.93-1.57-3.5-3.5-3.5h-2c-.827 0-1.5-.673-1.5-1.5s.673-1.5 1.5-1.5h4.5v-2h-2v-2h-2v2h-.5c-1.93 0-3.5 1.57-3.5 3.5s1.57 3.5 3.5 3.5h2c.827 0 1.5.673 1.5 1.5s-.673 1.5-1.5 1.5h-4.5v2h3v2h2v-2.051c1.692-.245 3-1.691 3-3.449z" fill="#ffd897"/></g><path d="m37 41c0-1.43-1.694-2.682-4.234-3.389l-4.766 3.389v4c4.971 0 9-1.791 9-4z" fill="#27d674"/><path d="m28 41 4.766-3.389c-1.383-.385-3.013-.611-4.766-.611-3.458 0-6.456.868-7.963 2.139z" fill="#c12b35"/><path d="m41.051 32h-35.051c-.553 0-1-.448-1-1v-18h2v17h34.051z" fill="#355485"/><path d="m35 10v-8h-1v9h1 8v-1z" fill="#c2cfe8"/></g></g></svg>